HIERARCHY
ROOT Hips
{
  OFFSET 5.84602e-005 68.8428 3.50346
  CHANNELS 6 Xposition Yposition Zposition Zrotation Xrotation Yrotation
  JOINT Spine
  {
    OFFSET 0 8.597 -4.6522
    CHANNELS 3 Zrotation Xrotation Yrotation
    JOINT Spine1
    {
      OFFSET 0 7.8454 0.4098
      CHANNELS 3 Zrotation Xrotation Yrotation
      JOINT Spine2
      {
        OFFSET 0 9.7078 -2.1609
        CHANNELS 3 Zrotation Xrotation Yrotation
        JOINT Neck
        {
          OFFSET 0 21.8761 -0.4549
          CHANNELS 3 Zrotation Xrotation Yrotation
          JOINT Head
          {
            OFFSET 0 12.3537 3.3602
            CHANNELS 3 Zrotation Xrotation Yrotation
            End Site
            {
              OFFSET 0.0001 18.9506 0.5657
            }
          }
        }
        JOINT LeftShoulder
        {
          OFFSET 2.2086 21.1115 7.2329
          CHANNELS 3 Zrotation Xrotation Yrotation
          JOINT LeftArm
          {
            OFFSET 13.1193 3.0282 -4.8998
            CHANNELS 3 Zrotation Xrotation Yrotation
            JOINT LeftForeArm
            {
              OFFSET 27.4081 -0.0973053 -0.2375
              CHANNELS 3 Zrotation Xrotation Yrotation
              JOINT LeftHand
              {
                OFFSET 22.8641 0.0662994 -0.1369
                CHANNELS 3 Zrotation Xrotation Yrotation
                JOINT LeftHandIndex1
                {
                  OFFSET 8.8614 0.775009 2.4612
                  CHANNELS 3 Zrotation Xrotation Yrotation
                  JOINT LeftHandIndex2
                  {
                    OFFSET 3.3146 -0.808304 0.5841
                    CHANNELS 3 Zrotation Xrotation Yrotation
                    JOINT LeftHandIndex3
                    {
                      OFFSET 2.2628 -0.552002 0.3989
                      CHANNELS 3 Zrotation Xrotation Yrotation
                      End Site
                      {
                        OFFSET 1.6102 -0.4807 0.2612
                      }
                    }
                  }
                }
                JOINT LeftHandMiddle1
                {
                  OFFSET 8.9937 0.895004 0.2143
                  CHANNELS 3 Zrotation Xrotation Yrotation
                  JOINT LeftHandMiddle2
                  {
                    OFFSET 4.0984 0.0113983 -0.0242
                    CHANNELS 3 Zrotation Xrotation Yrotation
                    JOINT LeftHandMiddle3
                    {
                      OFFSET 2.2716 0.00689697 -0.0138001
                      CHANNELS 3 Zrotation Xrotation Yrotation
                      End Site
                      {
                        OFFSET 2.0404 -0.1441 0.0027
                      }
                    }
                  }
                }
                JOINT LeftHandRing1
                {
                  OFFSET 8.5234 0.597198 -2.0164
                  CHANNELS 3 Zrotation Xrotation Yrotation
                  JOINT LeftHandRing2
                  {
                    OFFSET 3.7188 -0.188293 -0.2328
                    CHANNELS 3 Zrotation Xrotation Yrotation
                    JOINT LeftHandRing3
                    {
                      OFFSET 2.1191 -0.106598 -0.1332
                      CHANNELS 3 Zrotation Xrotation Yrotation
                      End Site
                      {
                        OFFSET 1.8737 -0.2304 -0.0886
                      }
                    }
                  }
                }
                JOINT LeftHandPinky1
                {
                  OFFSET 7.9094 -0.601089 -3.4825
                  CHANNELS 3 Zrotation Xrotation Yrotation
                  JOINT LeftHandPinky2
                  {
                    OFFSET 2.2874 -0.477005 -0.6314
                    CHANNELS 3 Zrotation Xrotation Yrotation
                    JOINT LeftHandPinky3
                    {
                      OFFSET 1.6774 -0.349396 -0.4633
                      CHANNELS 3 Zrotation Xrotation Yrotation
                      End Site
                      {
                        OFFSET 1.4888 -0.4091 -0.3416
                      }
                    }
                  }
                }
                JOINT LeftHandThumb1
                {
                  OFFSET 1.833 -1.3875 1.3896
                  CHANNELS 3 Zrotation Xrotation Yrotation
                  JOINT LeftHandThumb2
                  {
                    OFFSET 3.4129 -1.121 2.5732
                    CHANNELS 3 Zrotation Xrotation Yrotation
                    JOINT LeftHandThumb3
                    {
                      OFFSET 2.2474 -0.804199 1.6192
                      CHANNELS 3 Zrotation Xrotation Yrotation
                      End Site
                      {
                        OFFSET 1.6527 -0.5689 1.1317
                      }
                    }
                  }
                }
              }
            }
          }
        }
        JOINT RightShoulder
        {
          OFFSET -2.2086 21.1115 7.2329
          CHANNELS 3 Zrotation Xrotation Yrotation
          JOINT RightArm
          {
            OFFSET -13.1216 3.0287 -4.9007
            CHANNELS 3 Zrotation Xrotation Yrotation
            JOINT RightForeArm
            {
              OFFSET -27.4081 -0.0973053 -0.2375
              CHANNELS 3 Zrotation Xrotation Yrotation
              JOINT RightHand
              {
                OFFSET -22.8641 0.0664063 -0.1369
                CHANNELS 3 Zrotation Xrotation Yrotation
                JOINT RightHandIndex1
                {
                  OFFSET -8.8614 0.774994 2.4612
                  CHANNELS 3 Zrotation Xrotation Yrotation
                  JOINT RightHandIndex2
                  {
                    OFFSET -3.3146 -0.808304 0.5841
                    CHANNELS 3 Zrotation Xrotation Yrotation
                    JOINT RightHandIndex3
                    {
                      OFFSET -2.2628 -0.552002 0.3989
                      CHANNELS 3 Zrotation Xrotation Yrotation
                      End Site
                      {
                        OFFSET -1.6102 -0.4807 0.2612
                      }
                    }
                  }
                }
                JOINT RightHandMiddle1
                {
                  OFFSET -8.9937 0.894989 0.2143
                  CHANNELS 3 Zrotation Xrotation Yrotation
                  JOINT RightHandMiddle2
                  {
                    OFFSET -4.0984 0.0113983 -0.0242
                    CHANNELS 3 Zrotation Xrotation Yrotation
                    JOINT RightHandMiddle3
                    {
                      OFFSET -2.2716 0.00691223 -0.0138001
                      CHANNELS 3 Zrotation Xrotation Yrotation
                      End Site
                      {
                        OFFSET -2.0404 -0.1441 0.0027
                      }
                    }
                  }
                }
                JOINT RightHandRing1
                {
                  OFFSET -8.5234 0.597198 -2.0164
                  CHANNELS 3 Zrotation Xrotation Yrotation
                  JOINT RightHandRing2
                  {
                    OFFSET -3.7188 -0.188309 -0.2328
                    CHANNELS 3 Zrotation Xrotation Yrotation
                    JOINT RightHandRing3
                    {
                      OFFSET -2.1191 -0.106598 -0.1332
                      CHANNELS 3 Zrotation Xrotation Yrotation
                      End Site
                      {
                        OFFSET -1.8737 -0.2304 -0.0886
                      }
                    }
                  }
                }
                JOINT RightHandPinky1
                {
                  OFFSET -7.9094 -0.601105 -3.4825
                  CHANNELS 3 Zrotation Xrotation Yrotation
                  JOINT RightHandPinky2
                  {
                    OFFSET -2.2874 -0.477005 -0.6314
                    CHANNELS 3 Zrotation Xrotation Yrotation
                    JOINT RightHandPinky3
                    {
                      OFFSET -1.6774 -0.349396 -0.4633
                      CHANNELS 3 Zrotation Xrotation Yrotation
                      End Site
                      {
                        OFFSET -1.4888 -0.4091 -0.3416
                      }
                    }
                  }
                }
                JOINT RightHandThumb1
                {
                  OFFSET -1.833 -1.38751 1.3896
                  CHANNELS 3 Zrotation Xrotation Yrotation
                  JOINT RightHandThumb2
                  {
                    OFFSET -3.41299 -1.12099 2.5732
                    CHANNELS 3 Zrotation Xrotation Yrotation
                    JOINT RightHandThumb3
                    {
                      OFFSET -2.24741 -0.804108 1.6192
                      CHANNELS 3 Zrotation Xrotation Yrotation
                      End Site
                      {
                        OFFSET -1.6527 -0.5689 1.1317
                      }
                    }
                  }
                }
              }
            }
          }
        }
      }
    }
  }
  JOINT RightUpLeg
  {
    OFFSET -9.1966 3.8861 -0.7581
    CHANNELS 3 Zrotation Xrotation Yrotation
    JOINT RightLeg
    {
      OFFSET -0.7359 -41.0265 0
      CHANNELS 3 Zrotation Xrotation Yrotation
      JOINT RightFoot
      {
        OFFSET 0 -40.2855 0
        CHANNELS 3 Zrotation Xrotation Yrotation
        JOINT RightToeBase
        {
          OFFSET 0 -5.6122 11.7359
          CHANNELS 3 Zrotation Xrotation Yrotation
          End Site
          {
            OFFSET 0 0 7.8731
          }
        }
      }
    }
  }
  JOINT LeftUpLeg
  {
    OFFSET 9.1965 3.8864 -0.7581
    CHANNELS 3 Zrotation Xrotation Yrotation
    JOINT LeftLeg
    {
      OFFSET 0.7359 -41.0268 0
      CHANNELS 3 Zrotation Xrotation Yrotation
      JOINT LeftFoot
      {
        OFFSET 0 -40.2855 0
        CHANNELS 3 Zrotation Xrotation Yrotation
        JOINT LeftToeBase
        {
          OFFSET 0 -5.6122 11.7359
          CHANNELS 3 Zrotation Xrotation Yrotation
          End Site
          {
            OFFSET 0 0 7.8731
          }
        }
      }
    }
  }
}
MOTION
Frames:	4
Frame Time:	0.0333333
0.000218679 68.8409 3.5034 0 0 -0 0 0 -0 0 0 -0 0 0 -0 0 0 -0 0.00296843 0 -0 0 0 -0 0 0 -0 0 0 -0 0 0 -0 0 0 -0 0 0 -0 0 0 -0 0 0 -0 -0.0146107 -8.87603e-005 -2.63497e-007 2.99804e-018 -2.42657e-020 -1.42182e-022 0 0 -0 -0.0187562 -0.001176 5.858e-005 5.06224e-018 3.88251e-019 1.21329e-020 0 0 -0 -0.012269 -0.00324817 0.000675346 -1.74678e-018 3.88251e-019 -0 0 0 -0 0 0 -0 0 0 -0 0 0 -0 0 0 -0 0 0 -0 0 0 -0 0 0 -0 0 0 -0 0 0 -0 0 0 -0 0.0149955 -9.10982e-005 2.64101e-007 -9.69331e-018 1.21329e-020 -4.7394e-023 0 0 -0 0.0189956 -0.00119102 -5.96516e-005 -5.41541e-019 0 2.42657e-020 0 0 -0 0.0122698 -0.00324857 -0.000673756 -2.00796e-019 0 -1.94126e-019 0 0 -0 0 0 -0 0 0 -0 3.47463 1.35384 -0.0649703 0.0148044 0.785868 0.282586 0.0199394 -2.12651 -0.273967 -7.33604e-009 3.21478e-010 6.51153e-009 -3.39205 1.32637 0.0636001 -0.0148073 0.850427 -0.216627 3.40121 -2.16391 0.0642539 -2.23631e-019 -1.06162e-020 7.45443e-017 
15.9544 9.17773 23.134 -0 -33.0001 -0 0 15.5992 -0 0 31.1985 -0 0 31.1985 -0 0 30.9996 -0 0.00379781 0.274516 -0.173106 -0 -3.18055e-015 -0 -75.9999 4.32047e-006 4.99677 1.70431e-005 -5.20204e-006 -81.0033 24.9975 -7.31728e-007 -1.32998e-007 2.78299e-015 1.19271e-015 -6.36111e-015 2.38542e-015 -3.57812e-015 -0 -1.59028e-015 -4.37326e-015 -0 2.78299e-015 1.19271e-015 -6.36111e-015 -0.0145651 -9.00356e-005 6.71834e-007 5.96354e-015 -1.59028e-015 -3.18055e-015 2.78299e-015 1.19271e-015 -6.36111e-015 -0.0187587 -0.00117829 6.21291e-005 1.19271e-015 3.97569e-015 -9.54166e-015 2.78299e-015 1.19271e-015 -6.36111e-015 -0.0123142 -0.00325741 0.000677034 4.37326e-015 -3.97569e-015 -3.18055e-015 2.78299e-015 1.19271e-015 -6.36111e-015 2.38542e-015 -3.57812e-015 -0 -1.59028e-015 -4.37326e-015 -0 5.19458e-008 1.30604e-006 1.9987 66.7912 20.702 49.106 4.71595 1.93137 10.9626 14.9978 16.9983 -4.84112e-006 -2.98177e-015 -6.36111e-015 5.1684e-015 3.79381e-006 2.53302e-006 -1.365e-006 -4.57205e-015 1.90833e-014 -3.37934e-015 -2.98177e-015 -6.36111e-015 5.1684e-015 0.0149589 -8.65258e-005 1.13101e-006 3.57812e-015 0 -3.37934e-015 -2.98177e-015 -6.36111e-015 5.1684e-015 0.0189921 -0.0011931 -6.05261e-005 6.75868e-015 6.36111e-015 -4.77083e-015 -2.98177e-015 -6.36111e-015 5.1684e-015 0.0122854 -0.00324693 -0.000672944 7.95139e-016 -1.27222e-014 2.18663e-015 -2.98177e-015 -6.36111e-015 5.1684e-015 3.79381e-006 2.53302e-006 -1.365e-006 -4.57205e-015 1.90833e-014 -3.37934e-015 -48.0735 -10.6185 5.83917 -179.851 41.7199 173.805 1.3702 15.99 -3.78594 7.95649e-007 8.05966e-007 1.26493e-006 42.3607 -22.0518 2.33783 179.938 34.3861 -172.119 -2.12314 43.087 6.41785 3.57099e-007 2.31446e-006 2.54237e-006 
15.951 9.63923 23.1287 -0 -33.0001 -0 0 15.5992 -0 0 31.1985 -0 0 31.1985 -0 0 30.9991 -0 -0.00296982 -2.01975 -0.168489 -0 -6.36111e-015 -0 -75.9999 -1.07532e-006 4.99678 6.45689e-006 7.83155e-006 -82.0108 24.3258 1.86675e-006 -1.23719e-005 2.73461e-006 1.43764e-006 1.63405e-006 3.57812e-015 1.98785e-015 -3.18055e-015 5.13377e-007 9.00434e-007 7.81616e-007 2.73461e-006 1.43764e-006 1.63405e-006 -0.0146434 -9.22843e-005 -2.93368e-006 5.15383e-007 9.00346e-007 7.81731e-007 2.73461e-006 1.43764e-006 1.63405e-006 -0.0187734 -0.00117574 6.20593e-005 -3.57812e-015 -1.98785e-015 3.18055e-015 2.73461e-006 1.43764e-006 1.63405e-006 -0.0122898 -0.00325248 0.000677038 2.38542e-015 3.97569e-016 3.18055e-015 2.73461e-006 1.43764e-006 1.63405e-006 3.57812e-015 1.98785e-015 -3.18055e-015 5.13377e-007 9.00434e-007 7.81616e-007 5.85529e-008 7.59757e-007 1.9987 66.7912 20.702 49.106 4.71595 1.93137 10.9626 14.9978 16.9983 -4.73426e-006 1.71704e-006 3.44178e-006 2.88505e-006 1.2144e-006 1.67065e-006 -2.57941e-006 6.37322e-006 3.39539e-006 -1.50597e-007 1.71704e-006 3.44178e-006 2.88505e-006 0.01503 -9.04286e-005 -4.3543e-006 6.37354e-006 3.39537e-006 -1.51047e-007 1.71704e-006 3.44178e-006 2.88505e-006 0.0189878 -0.00118881 -5.83947e-005 6.37362e-006 3.39534e-006 -1.51227e-007 1.71704e-006 3.44178e-006 2.88505e-006 0.0122468 -0.00323547 -0.000680295 6.37346e-006 3.39534e-006 -1.51154e-007 1.71704e-006 3.44178e-006 2.88505e-006 1.2144e-006 1.67065e-006 -2.57941e-006 6.37322e-006 3.39539e-006 -1.50597e-007 -46.8771 -10.8784 6.12407 -179.851 41.719 173.806 1.36971 15.9385 -3.78404 3.7425e-006 1.56133e-006 2.95399e-007 40.9946 -21.7765 1.21717 179.934 34.8409 -172.217 -2.04709 43.0383 6.32091 8.59243e-007 7.40869e-006 6.75881e-006 
15.9476 10.1007 23.1234 -0 -33.0001 -0 0 15.5992 -0 0 31.1985 -0 0 31.1985 -0 0 30.9996 -0 -0.00621587 -4.34279 -0.163941 0 0 -0 -76 1.83971e-006 4.99678 1.21269e-005 -1.13874e-005 -83.023 23.6528 -9.9999e-007 -1.39885e-006 -3.97569e-016 -1.19271e-015 -6.36111e-015 -4.16711e-007 1.41438e-006 8.06026e-007 2.78299e-015 7.95139e-016 -0 -3.97569e-016 -1.19271e-015 -6.36111e-015 -0.0145788 -8.68804e-005 1.27661e-006 -1.19271e-015 3.97569e-016 -1.59028e-014 -3.97569e-016 -1.19271e-015 -6.36111e-015 -0.018769 -0.00117608 6.33871e-005 3.18055e-015 1.98785e-015 -6.36111e-015 -3.97569e-016 -1.19271e-015 -6.36111e-015 -0.0123433 -0.00326353 0.000678037 -7.95139e-016 1.07344e-014 3.18055e-015 -3.97569e-016 -1.19271e-015 -6.36111e-015 -4.16711e-007 1.41438e-006 8.06026e-007 2.78299e-015 7.95139e-016 -0 7.91581e-008 7.62516e-007 1.9987 66.7911 20.702 49.106 4.71596 1.93137 10.9626 14.9978 16.9982 3.30759e-006 1.71704e-006 3.44178e-006 2.88505e-006 3.52033e-007 4.25006e-006 -9.08757e-007 6.37322e-006 3.39539e-006 -1.50597e-007 1.71704e-006 3.44178e-006 2.88505e-006 0.0150233 -8.94715e-005 2.93026e-006 6.37354e-006 3.39537e-006 -1.51048e-007 1.71704e-006 3.44178e-006 2.88505e-006 0.0189866 -0.00119048 -5.58163e-005 6.37363e-006 3.39534e-006 -1.51228e-007 1.71704e-006 3.44178e-006 2.88505e-006 0.012299 -0.00325203 -0.000678958 6.37346e-006 3.39534e-006 -1.51158e-007 1.71704e-006 3.44178e-006 2.88505e-006 3.52033e-007 4.25006e-006 -9.08757e-007 6.37322e-006 3.39539e-006 -1.50597e-007 -45.6764 -11.1331 6.4151 -179.851 41.7182 173.808 1.36904 15.8872 -3.7826 -1.76556e-031 -3.18055e-015 -3.18055e-015 39.6335 -21.4811 0.107905 179.93 35.2964 -172.311 -1.97326 42.9909 6.22708 -2.36612e-007 1.88225e-006 5.16059e-007 
